<svg xmlns="http://www.w3.org/2000/svg" xmlns:xlink="http://www.w3.org/1999/xlink" width="500" zoomAndPan="magnify" viewBox="0 0 375 374.999991" height="500" preserveAspectRatio="xMidYMid meet" version="1.0"><defs><g/><clipPath id="da0f2f61fd"><path d="M 41.25 134 L 168 134 L 168 224 L 41.25 224 Z M 41.25 134 " clip-rule="nonzero"/></clipPath><clipPath id="51a1e314d5"><path d="M 62 105.261719 L 168 105.261719 L 168 224 L 62 224 Z M 62 105.261719 " clip-rule="nonzero"/></clipPath></defs><rect x="-37.5" width="450" fill="#ffffff" y="-37.499999" height="449.999989" fill-opacity="1"/><rect x="-37.5" width="450" fill="#664229" y="-37.499999" height="449.999989" fill-opacity="1"/><g clip-path="url(#da0f2f61fd)"><path fill="#d89b64" d="M 167.1875 221.289062 C 167.1875 221.289062 156.195312 215.300781 136.917969 214.355469 C 128.425781 213.9375 118.3125 214.496094 106.816406 216.992188 C 106.816406 216.992188 44.863281 139.109375 44.863281 139.109375 C 46.429688 138.757812 48.988281 138.234375 52.320312 137.769531 C 55 137.394531 58.167969 137.058594 61.722656 136.867188 C 62.375 136.832031 62.875 136.273438 62.839844 135.621094 C 62.804688 134.96875 62.246094 134.472656 61.59375 134.503906 C 57.964844 134.703125 54.726562 135.046875 51.996094 135.429688 C 46.035156 136.261719 42.472656 137.261719 42.472656 137.261719 C 42.089844 137.371094 41.789062 137.664062 41.664062 138.039062 C 41.542969 138.414062 41.617188 138.828125 41.863281 139.136719 L 105.425781 219.039062 C 105.707031 219.394531 106.167969 219.554688 106.609375 219.457031 C 118.160156 216.882812 128.308594 216.296875 136.800781 216.714844 C 155.429688 217.632812 166.0625 223.363281 166.0625 223.363281 C 166.632812 223.675781 167.351562 223.464844 167.660156 222.886719 C 167.972656 222.316406 167.761719 221.597656 167.1875 221.289062 Z M 167.1875 221.289062 " fill-opacity="1" fill-rule="evenodd"/></g><g clip-path="url(#51a1e314d5)"><path fill="#e5d3b3" d="M 167.753906 221.628906 C 167.753906 221.628906 160.953125 210.179688 143.933594 202.925781 C 136.394531 199.714844 126.839844 197.320312 114.96875 197.136719 C 114.96875 197.136719 72.992188 120.648438 66.074219 108.042969 C 70.492188 108.109375 81.859375 108.671875 94.652344 112.347656 C 103.761719 114.964844 113.59375 119.160156 122.144531 125.902344 C 122.660156 126.308594 123.402344 126.21875 123.808594 125.707031 C 124.210938 125.195312 124.121094 124.453125 123.609375 124.046875 C 114.804688 117.105469 104.683594 112.769531 95.304688 110.078125 C 78.46875 105.238281 64.042969 105.683594 64.042969 105.683594 C 63.628906 105.695312 63.253906 105.921875 63.050781 106.277344 C 62.847656 106.636719 62.84375 107.074219 63.042969 107.433594 L 113.230469 198.878906 C 113.433594 199.253906 113.828125 199.488281 114.253906 199.492188 C 126.074219 199.59375 135.558594 201.929688 143.003906 205.101562 C 159.207031 212.007812 165.722656 222.84375 165.722656 222.84375 C 166.058594 223.40625 166.785156 223.589844 167.34375 223.253906 C 167.90625 222.917969 168.089844 222.191406 167.753906 221.628906 Z M 167.753906 221.628906 " fill-opacity="1" fill-rule="evenodd"/></g><path fill="#e5d3b3" d="M 167.476562 221.464844 C 167.476562 221.464844 158.730469 213.921875 140.125 210.332031 C 132.339844 208.828125 122.8125 208.015625 111.464844 208.753906 C 111.464844 208.753906 55.738281 123.734375 55.738281 123.734375 C 57.351562 123.621094 59.910156 123.492188 63.191406 123.527344 C 65.894531 123.558594 69.082031 123.695312 72.621094 124.035156 C 73.273438 124.097656 73.851562 123.617188 73.914062 122.96875 C 73.972656 122.316406 73.496094 121.742188 72.847656 121.679688 C 69.230469 121.335938 65.976562 121.195312 63.21875 121.164062 C 57.199219 121.101562 53.527344 121.5625 53.527344 121.5625 C 53.121094 121.613281 52.769531 121.871094 52.597656 122.238281 C 52.429688 122.609375 52.460938 123.042969 52.683594 123.382812 L 109.867188 210.628906 C 110.097656 210.984375 110.511719 211.1875 110.9375 211.160156 C 122.347656 210.359375 131.902344 211.152344 139.675781 212.652344 C 157.523438 216.09375 165.9375 223.257812 165.9375 223.257812 C 166.433594 223.683594 167.179688 223.625 167.605469 223.132812 C 168.027344 222.636719 167.972656 221.890625 167.476562 221.464844 Z M 167.476562 221.464844 " fill-opacity="1" fill-rule="evenodd"/><g fill="#ffffff" fill-opacity="1"><g transform="translate(122.63558, 179.141986)"><g><path d="M 34.265625 0.484375 L 31.734375 0.484375 L 8.21875 -34.984375 L 8.21875 -1.4375 L 13.5625 -1.4375 L 13.5625 0 L 1.375 0 L 1.375 -1.4375 L 6.71875 -1.4375 L 6.71875 -37.265625 L 1.375 -37.265625 L 1.375 -38.703125 L 13.984375 -38.703125 L 32.765625 -10.5 L 32.765625 -37.265625 L 27.421875 -37.265625 L 27.421875 -38.703125 L 39.59375 -38.703125 L 39.59375 -37.265625 L 34.265625 -37.265625 Z M 34.265625 0.484375 "/></g></g></g><g fill="#ffffff" fill-opacity="1"><g transform="translate(160.247684, 179.141986)"><g><path d="M 24.84375 -7.015625 C 24.84375 -6.703125 24.78125 -6.40625 24.65625 -6.125 C 22.820312 -1.519531 19.203125 0.78125 13.796875 0.78125 C 10.398438 0.78125 7.539062 -0.378906 5.21875 -2.703125 C 2.863281 -5.054688 1.6875 -7.851562 1.6875 -11.09375 C 1.6875 -14.300781 2.863281 -17.144531 5.21875 -19.625 C 7.613281 -22.144531 10.394531 -23.40625 13.5625 -23.40625 C 17.082031 -23.40625 19.898438 -22.144531 22.015625 -19.625 C 23.578125 -17.738281 24.421875 -15.859375 24.546875 -13.984375 C 24.617188 -13.296875 24.195312 -12.953125 23.28125 -12.953125 L 8.703125 -12.953125 L 8.703125 -7.4375 C 8.703125 -2.875 10.441406 -0.59375 13.921875 -0.59375 C 18.273438 -0.59375 21.4375 -2.710938 23.40625 -6.953125 C 23.644531 -7.441406 23.921875 -7.6875 24.234375 -7.6875 C 24.640625 -7.6875 24.84375 -7.460938 24.84375 -7.015625 Z M 18.1875 -16.734375 C 18.1875 -20.210938 16.664062 -21.953125 13.625 -21.953125 C 10.34375 -21.953125 8.703125 -20.09375 8.703125 -16.375 L 8.703125 -14.40625 L 17.578125 -14.40625 C 17.984375 -14.40625 18.1875 -15.179688 18.1875 -16.734375 Z M 18.1875 -16.734375 "/></g></g></g><g fill="#ffffff" fill-opacity="1"><g transform="translate(184.062472, 179.141986)"><g><path d="M 15.78125 -1.4375 L 20.15625 -1.4375 L 14.34375 -9.125 L 8.046875 -1.4375 L 12.296875 -1.4375 L 12.296875 0 L 1.859375 0 L 1.859375 -1.4375 L 6.125 -1.4375 L 13.375 -10.375 L 5.15625 -21.1875 L 1.5625 -21.1875 L 1.5625 -22.5625 L 15.1875 -22.5625 L 15.1875 -21.1875 L 11.40625 -21.1875 L 16.734375 -14.15625 L 22.4375 -21.1875 L 18.78125 -21.1875 L 18.78125 -22.5625 L 28.5625 -22.5625 L 28.5625 -21.1875 L 24.484375 -21.1875 L 17.703125 -12.90625 L 26.453125 -1.4375 L 30.296875 -1.4375 L 30.296875 0 L 15.78125 0 Z M 15.78125 -1.4375 "/></g></g></g><g fill="#ffffff" fill-opacity="1"><g transform="translate(212.136429, 179.141986)"><g><path d="M 20.28125 -4.984375 C 20.28125 -4.660156 20.257812 -4.457031 20.21875 -4.375 C 19.539062 -0.9375 17.082031 0.78125 12.84375 0.78125 C 10.519531 0.78125 8.6875 0.179688 7.34375 -1.015625 C 6.007812 -2.210938 5.34375 -3.953125 5.34375 -6.234375 L 5.34375 -21.296875 L 1.140625 -21.296875 L 1.140625 -22.734375 L 5.34375 -22.734375 L 5.34375 -29.09375 L 11.21875 -31.796875 L 11.21875 -22.734375 L 17.21875 -22.734375 L 17.21875 -21.296875 L 11.21875 -21.296875 L 11.21875 -6.125 C 11.21875 -2.675781 12.457031 -0.953125 14.9375 -0.953125 C 17.101562 -0.953125 18.40625 -2.253906 18.84375 -4.859375 C 18.914062 -5.421875 19.195312 -5.703125 19.6875 -5.703125 C 20.082031 -5.703125 20.28125 -5.460938 20.28125 -4.984375 Z M 20.28125 -4.984375 "/></g></g></g><g fill="#ffffff" fill-opacity="1"><g transform="translate(230.012374, 179.141986)"><g><path d="M 24.125 -18.78125 C 24.125 -17.820312 23.800781 -17.0625 23.15625 -16.5 C 22.519531 -15.9375 21.722656 -15.65625 20.765625 -15.65625 C 19.796875 -15.65625 18.984375 -15.914062 18.328125 -16.4375 C 17.671875 -16.957031 17.34375 -17.675781 17.34375 -18.59375 C 17.34375 -19.832031 17.84375 -20.710938 18.84375 -21.234375 C 18.957031 -21.273438 19.015625 -21.335938 19.015625 -21.421875 C 19.015625 -21.578125 18.535156 -21.65625 17.578125 -21.65625 C 16.253906 -21.65625 14.875 -21.117188 13.4375 -20.046875 C 12 -19.003906 11.28125 -17.84375 11.28125 -16.5625 L 11.28125 -1.4375 L 15.59375 -1.4375 L 15.59375 0 L 1.078125 0 L 1.078125 -1.4375 L 5.40625 -1.4375 L 5.40625 -21.1875 L 1.078125 -21.1875 L 1.078125 -22.625 L 11.28125 -22.625 L 11.28125 -19.921875 C 13.039062 -22.035156 15.359375 -23.09375 18.234375 -23.09375 C 19.878906 -23.09375 21.203125 -22.773438 22.203125 -22.140625 C 23.484375 -21.335938 24.125 -20.21875 24.125 -18.78125 Z M 24.125 -18.78125 "/></g></g></g><g fill="#ffffff" fill-opacity="1"><g transform="translate(251.727571, 179.141986)"><g><path d="M 27.1875 -3.234375 C 27.1875 -1.992188 26.441406 -0.992188 24.953125 -0.234375 C 23.679688 0.441406 22.425781 0.78125 21.1875 0.78125 C 18.582031 0.78125 17 -0.160156 16.4375 -2.046875 C 14.675781 -0.160156 12.359375 0.78125 9.484375 0.78125 C 4.835938 0.78125 2.515625 -0.976562 2.515625 -4.5 C 2.515625 -7.414062 4.15625 -9.597656 7.4375 -11.046875 C 9.914062 -12.117188 12.796875 -12.675781 16.078125 -12.71875 L 16.078125 -19.140625 C 16.078125 -21.140625 14.796875 -22.140625 12.234375 -22.140625 C 9.796875 -22.140625 8.578125 -21.800781 8.578125 -21.125 C 8.617188 -21.082031 8.675781 -21.019531 8.75 -20.9375 C 8.832031 -20.851562 8.957031 -20.753906 9.125 -20.640625 C 9.675781 -20.078125 9.953125 -19.476562 9.953125 -18.84375 C 9.953125 -17.363281 9.09375 -16.625 7.375 -16.625 C 5.695312 -16.625 4.859375 -17.398438 4.859375 -18.953125 C 4.859375 -20.597656 6 -21.820312 8.28125 -22.625 C 9.71875 -23.144531 11.519531 -23.40625 13.6875 -23.40625 C 19.195312 -23.40625 21.953125 -21.625 21.953125 -18.0625 L 21.953125 -4.4375 C 21.953125 -2.28125 22.4375 -1.203125 23.40625 -1.203125 C 24.476562 -1.203125 25.359375 -1.863281 26.046875 -3.1875 C 26.203125 -3.582031 26.421875 -3.78125 26.703125 -3.78125 C 27.023438 -3.78125 27.1875 -3.597656 27.1875 -3.234375 Z M 16.078125 -11.640625 C 14.796875 -11.554688 13.695312 -11.414062 12.78125 -11.21875 C 11.863281 -11.019531 11.125 -10.78125 10.5625 -10.5 C 8.800781 -9.582031 7.921875 -8.0625 7.921875 -5.9375 C 7.921875 -2.78125 9.140625 -1.203125 11.578125 -1.203125 C 12.296875 -1.203125 13.21875 -1.519531 14.34375 -2.15625 C 15.5 -2.84375 16.078125 -3.484375 16.078125 -4.078125 Z M 16.078125 -11.640625 "/></g></g></g><g fill="#ffffff" fill-opacity="1"><g transform="translate(276.082257, 179.141986)"><g><path d="M 24.84375 -7.015625 C 24.84375 -6.703125 24.78125 -6.40625 24.65625 -6.125 C 22.820312 -1.519531 19.203125 0.78125 13.796875 0.78125 C 10.398438 0.78125 7.539062 -0.378906 5.21875 -2.703125 C 2.863281 -5.054688 1.6875 -7.851562 1.6875 -11.09375 C 1.6875 -14.300781 2.863281 -17.144531 5.21875 -19.625 C 7.613281 -22.144531 10.394531 -23.40625 13.5625 -23.40625 C 17.082031 -23.40625 19.898438 -22.144531 22.015625 -19.625 C 23.578125 -17.738281 24.421875 -15.859375 24.546875 -13.984375 C 24.617188 -13.296875 24.195312 -12.953125 23.28125 -12.953125 L 8.703125 -12.953125 L 8.703125 -7.4375 C 8.703125 -2.875 10.441406 -0.59375 13.921875 -0.59375 C 18.273438 -0.59375 21.4375 -2.710938 23.40625 -6.953125 C 23.644531 -7.441406 23.921875 -7.6875 24.234375 -7.6875 C 24.640625 -7.6875 24.84375 -7.460938 24.84375 -7.015625 Z M 18.1875 -16.734375 C 18.1875 -20.210938 16.664062 -21.953125 13.625 -21.953125 C 10.34375 -21.953125 8.703125 -20.09375 8.703125 -16.375 L 8.703125 -14.40625 L 17.578125 -14.40625 C 17.984375 -14.40625 18.1875 -15.179688 18.1875 -16.734375 Z M 18.1875 -16.734375 "/></g></g></g></svg>